<svg width="17" height="22" viewBox="0 0 17 22" fill="none" xmlns="http://www.w3.org/2000/svg">
<path d="M4.06445 0.769531C4.412 0.520405 4.8526 0.443857 5.19238 0.540039C5.45194 0.613551 5.64293 0.779721 5.74707 1.00684L7.67285 5.20508C7.98523 5.88688 7.78865 6.61992 7.23926 7.01367L5.92383 7.95703C5.75242 8.08013 5.57569 8.28858 5.50781 8.66895C5.42101 9.15535 5.53873 9.76518 5.74902 10.3682C5.96537 10.9884 6.30392 11.6689 6.73047 12.3252C7.26627 13.1496 7.87583 13.8368 8.44336 14.2744C8.72486 14.4915 9.02053 14.6658 9.31055 14.7529C9.59837 14.8394 9.95869 14.8592 10.2666 14.6387L11.582 13.6953C12.121 13.309 12.7978 13.3873 13.2617 13.9277L16.2861 17.4551C16.4437 17.6387 16.5269 17.8993 16.4922 18.207C16.4462 18.6125 16.2096 19.0157 15.8555 19.2695L13.2256 21.1543C12.8985 21.3868 12.515 21.5061 12.127 21.5H12.1191C11.4271 21.4999 10.4069 21.1788 8.98828 20.0244C7.41295 18.7424 5.68178 16.704 4.125 14.2744C2.5639 11.8378 1.40715 9.36578 0.856445 7.32129C0.435991 5.76061 0.436169 4.6979 0.607422 3.98145C0.775771 3.27743 1.11444 2.88404 1.43359 2.65527L4.06445 0.769531Z" stroke="#FAE255"/>
</svg>
