<svg xmlns="http://www.w3.org/2000/svg" width="64" height="64" viewBox="0 0 64 64" fill="none">
  <rect width="64" height="64" rx="32" fill="#FAE255"/>
  <path fill-rule="evenodd" clip-rule="evenodd" d="M22.7313 43.5303C22.1062 44.1565 21.0918 44.1565 20.4688 43.5303C19.8437 42.9064 19.8437 41.8941 20.4688 41.269L27.4771 34.259L29.7395 36.5214L22.7313 43.5303V43.5303Z" stroke="#1B2F43" stroke-linejoin="round"/>
  <path d="M26.3481 33.127L30.871 37.6517" stroke="#1B2F43" stroke-linecap="round" stroke-linejoin="round"/>
  <path d="M40.0005 24L28.5996 35.4003" stroke="#1B2F43" stroke-linejoin="round"/>
  <path fill-rule="evenodd" clip-rule="evenodd" d="M41.2626 25.2618L38.6226 22.624L42.3998 20L43.9998 21.6L41.2626 25.2618Z" stroke="#1B2F43" stroke-linejoin="round"/>
  <path d="M31.9991 29.7708L28.0659 25.8386C28.7129 24.3094 28.4167 22.4746 27.169 21.2279C25.9233 19.9834 24.1683 19.6851 22.6381 20.3321L24.6011 22.5471V24.6476H22.5005L20.3328 22.6374C19.6848 24.1676 19.983 25.9615 21.2287 27.2081C22.4753 28.4558 24.3101 28.7321 25.8383 28.084L29.7726 32.0099" stroke="#1B2F43" stroke-linejoin="round"/>
  <path d="M31.9985 34.2264L35.9339 38.1628C35.2869 39.6919 35.5831 41.5257 36.8308 42.7724C38.0764 44.018 39.9102 44.3141 41.4404 43.6682L39.3042 41.4511V39.3506H41.4047L43.667 41.4396C44.315 39.9104 44.0167 38.0777 42.7711 36.831C41.5245 35.5844 39.6907 35.2871 38.1615 35.9341L34.2283 31.9988" stroke="#1B2F43" stroke-linejoin="round"/>
</svg>