<svg xmlns="http://www.w3.org/2000/svg" width="64" height="64" viewBox="0 0 64 64" fill="none">
  <rect width="64" height="64" rx="32" fill="#FAE255"/>
  <path d="M41 40H23C22.4477 40 22 40.4477 22 41V43C22 43.5523 22.4477 44 23 44H41C41.5523 44 42 43.5523 42 43V41C42 40.4477 41.5523 40 41 40Z" stroke="#1B2F43" stroke-miterlimit="10"/>
  <path d="M34 32C34 30.8954 33.1046 30 32 30C30.8954 30 30 30.8954 30 32C30 33.1046 30.8954 34 32 34C33.1046 34 34 33.1046 34 32Z" stroke="#1B2F43" stroke-miterlimit="10"/>
  <path d="M32 22V20" stroke="#1B2F43" stroke-miterlimit="10" stroke-linecap="round"/>
  <path d="M42 32H44" stroke="#1B2F43" stroke-miterlimit="10" stroke-linecap="round"/>
  <path d="M20 32H22" stroke="#1B2F43" stroke-miterlimit="10" stroke-linecap="round"/>
  <path d="M39.0698 24.93L40.4898 23.51" stroke="#1B2F43" stroke-miterlimit="10" stroke-linecap="round"/>
  <path d="M23.5098 23.51L24.9298 24.93" stroke="#1B2F43" stroke-miterlimit="10" stroke-linecap="round"/>
  <path d="M32 24C36.42 24 40 27.58 40 32V40H24V32C24 27.58 27.58 24 32 24Z" stroke="#1B2F43" stroke-miterlimit="10"/>
  <path d="M32 39.9999V34.4299" stroke="#1B2F43" stroke-miterlimit="10"/>
</svg>