<svg width="24" height="24" viewBox="0 0 24 24" fill="none" xmlns="http://www.w3.org/2000/svg">
<path d="M17.3774 0H6.60415C2.93313 0 0 2.93313 0 6.60415V17.3958C0 21.0484 2.93313 24 6.60415 24H17.3958C21.0484 24 24 21.0669 24 17.3958V6.60415C23.9816 2.93313 21.0484 0 17.3774 0ZM21.8786 16.4366C21.8786 19.4251 19.4435 21.897 16.4181 21.897H7.56341C4.57494 21.897 2.103 19.462 2.103 16.4366V7.56341C2.103 4.57494 4.53805 2.103 7.56341 2.103H16.4735C19.462 2.103 21.9339 4.53805 21.9339 7.56341V16.4366H21.8786Z" fill="white"/>
<path d="M16.3626 7.67362L16.3073 7.61828L16.2519 7.56294C15.1082 6.4192 13.5771 5.79199 11.9906 5.79199C8.59627 5.81044 5.84761 8.59599 5.86606 11.9903C5.86606 13.6321 6.53016 15.2001 7.6739 16.3623C8.81763 17.5245 10.3672 18.1702 11.9906 18.1702C15.4033 18.1148 18.1335 15.2555 18.0782 11.8058C18.0413 10.2747 17.451 8.78046 16.3626 7.67362ZM11.9906 16.0672C9.74 16.1041 7.91372 14.2962 7.87682 12.0456C7.83993 9.79507 9.64777 7.96878 11.8983 7.93188C14.1489 7.89499 15.9752 9.70283 16.0121 11.9534V12.0087C16.0121 14.204 14.2043 16.0303 11.9906 16.0672Z" fill="white"/>
<path d="M19.9045 5.51534C19.9045 6.32702 19.2773 6.99113 18.4656 6.99113C18.0782 6.99113 17.7093 6.84355 17.451 6.56684C16.8791 5.99497 16.8791 5.03571 17.4879 4.46384C17.7646 4.18713 18.1151 4.03955 18.5025 4.03955C18.8345 4.03955 19.1666 4.16868 19.4249 4.3716L19.4618 4.4085C19.5171 4.44539 19.554 4.50073 19.5909 4.53763L19.6278 4.57452C19.7754 4.83279 19.9045 5.16484 19.9045 5.51534Z" fill="white"/>
</svg>
