<svg width="64" height="64" viewBox="0 0 64 64" fill="none" xmlns="http://www.w3.org/2000/svg">
<rect width="64" height="64" rx="32" fill="#1852CB"/>
<path fill-rule="evenodd" clip-rule="evenodd" d="M29.5327 27.8658C30.4148 26.9837 30.4857 25.6258 29.6927 24.83L27.5362 22.6762C26.7431 21.8818 25.3838 21.9527 24.5031 22.8362L23.1884 24.1482C22.0489 25.2877 21.7943 26.9851 22.5706 28.2192C25.907 33.5103 30.4899 38.0933 35.7824 41.4296C37.0124 42.2074 38.7153 41.95 39.852 40.8133L41.1654 39.4985C42.0475 38.6164 42.1198 37.2571 41.324 36.464L39.1703 34.3089C38.3744 33.5159 37.0179 33.5854 36.1358 34.4675L35.3372 35.2647C32.9497 33.3517 30.6485 31.0519 28.7355 28.663L29.5327 27.8658V27.8658Z" stroke="#FAE255" stroke-linecap="round" stroke-linejoin="round"/>
<path d="M40.3478 40.3478C41.0435 41.0435 42.5197 48 32 48C23.1624 48 16 40.8376 16 32C16 23.1638 23.1624 16 32 16C40.8376 16 48 23.1638 48 32C48 35.3558 46.9677 38.471 45.2007 41.0435" stroke="#FAE255" stroke-linecap="round" stroke-linejoin="round"/>
</svg>
