<svg width="32" height="32" viewBox="0 0 32 32" fill="none" xmlns="http://www.w3.org/2000/svg">
<path d="M22.6539 19.3126C21.8448 18.3849 20.5941 18.2205 19.6116 18.9132L17.9088 20.1134C17.2226 20.5967 15.5823 19.353 14.2523 17.3403C13.1969 15.7434 12.5991 14.0575 12.7646 13.1452C12.8213 12.8325 12.9508 12.7097 13.0431 12.6446L14.7459 11.4443C15.7253 10.7539 16.0426 9.48506 15.5174 8.35876L13.0259 3.01586C12.8098 2.55228 12.4087 2.21832 11.8961 2.07553C11.2488 1.89519 10.4776 2.04317 9.88342 2.46205L6.47818 4.86231C5.40449 5.61919 4.36018 7.38258 5.48372 11.4838C6.21839 14.1662 7.74903 17.3718 9.79364 20.5103C11.832 23.6391 14.1154 26.2914 16.2237 27.9788C18.1232 29.499 19.584 29.9996 20.684 29.9996C21.3268 30.0096 21.9572 29.8149 22.4907 29.4418L25.8959 27.0415C26.4975 26.6175 26.905 25.9457 26.9858 25.2445C27.0489 24.6961 26.9004 24.1838 26.5673 23.8018L22.6539 19.3126Z" stroke="#1B2F43" stroke-width="2"/>
</svg>
