<svg width="124" height="124" viewBox="0 0 124 124" fill="none" xmlns="http://www.w3.org/2000/svg">
<circle cx="62" cy="62" r="62" fill="#FAE255"/>
<path fill-rule="evenodd" clip-rule="evenodd" d="M98 26H26V98H98V26Z" fill="#FAE255"/>
<path fill-rule="evenodd" clip-rule="evenodd" d="M55.8043 50.125H33.5V88.125H55.8043V50.125Z" stroke="#1B2F43" stroke-width="2" stroke-linecap="round" stroke-linejoin="round"/>
<path fill-rule="evenodd" clip-rule="evenodd" d="M53.3259 50.125H35.978V40.625H53.3259V50.125Z" stroke="#1B2F43" stroke-width="2" stroke-linecap="round" stroke-linejoin="round"/>
<path d="M43.4131 40.625V33.5" stroke="#1B2F43" stroke-width="2" stroke-linecap="round" stroke-linejoin="round"/>
<path fill-rule="evenodd" clip-rule="evenodd" d="M90.5002 88.125H73.1523V54.875H90.5002V88.125Z" stroke="#1B2F43" stroke-width="2" stroke-linecap="round" stroke-linejoin="round"/>
<path fill-rule="evenodd" clip-rule="evenodd" d="M88.0217 54.875H75.6304V47.75H88.0217V54.875Z" stroke="#1B2F43" stroke-width="2" stroke-linecap="round" stroke-linejoin="round"/>
<path d="M55.8044 64.375H73.1523" stroke="#1B2F43" stroke-width="2" stroke-linecap="round" stroke-linejoin="round"/>
<path d="M55.8044 88.125H73.1523" stroke="#1B2F43" stroke-width="2" stroke-linecap="round" stroke-linejoin="round"/>
<path d="M40.9348 45.375H48.3696" stroke="#1B2F43" stroke-width="2" stroke-linecap="round" stroke-linejoin="round"/>
<path d="M38.4565 54.875H50.8478" stroke="#1B2F43" stroke-width="2" stroke-linecap="round" stroke-linejoin="round"/>
<path d="M38.4565 59.625H50.8478" stroke="#1B2F43" stroke-width="2" stroke-linecap="round" stroke-linejoin="round"/>
<path d="M38.4565 64.375H50.8478" stroke="#1B2F43" stroke-width="2" stroke-linecap="round" stroke-linejoin="round"/>
<path d="M38.4565 69.125H50.8478" stroke="#1B2F43" stroke-width="2" stroke-linecap="round" stroke-linejoin="round"/>
<path d="M38.4565 73.875H50.8478" stroke="#1B2F43" stroke-width="2" stroke-linecap="round" stroke-linejoin="round"/>
<path d="M38.4565 78.625H50.8478" stroke="#1B2F43" stroke-width="2" stroke-linecap="round" stroke-linejoin="round"/>
<path d="M78.1084 59.625H85.5432" stroke="#1B2F43" stroke-width="2" stroke-linecap="round" stroke-linejoin="round"/>
<path d="M78.1084 64.375H85.5432" stroke="#1B2F43" stroke-width="2" stroke-linecap="round" stroke-linejoin="round"/>
<path d="M78.1084 69.125H85.5432" stroke="#1B2F43" stroke-width="2" stroke-linecap="round" stroke-linejoin="round"/>
<path d="M78.1084 73.875H85.5432" stroke="#1B2F43" stroke-width="2" stroke-linecap="round" stroke-linejoin="round"/>
<path d="M78.1084 78.625H85.5432" stroke="#1B2F43" stroke-width="2" stroke-linecap="round" stroke-linejoin="round"/>
<path d="M60.7607 69.125H68.1955" stroke="#1B2F43" stroke-width="2" stroke-linecap="round" stroke-linejoin="round"/>
<path d="M60.7607 73.875H68.1955" stroke="#1B2F43" stroke-width="2" stroke-linecap="round" stroke-linejoin="round"/>
<path d="M60.7607 78.625H68.1955" stroke="#1B2F43" stroke-width="2" stroke-linecap="round" stroke-linejoin="round"/>
</svg>
