<svg width="64" height="64" viewBox="0 0 64 64" fill="none" xmlns="http://www.w3.org/2000/svg">
<rect width="64" height="64" rx="32" fill="#FAE255"/>
<path d="M24 32V42H40V32" stroke="#1B2F43" stroke-linecap="round" stroke-linejoin="round"/>
<path d="M20 31.6L22 30" stroke="#1B2F43" stroke-linecap="round" stroke-linejoin="round"/>
<path d="M30.125 23.5L32 22L44 31.6" stroke="#1B2F43" stroke-linecap="round" stroke-linejoin="round"/>
<path d="M36.8005 23.2002H39.2005V25.6002" stroke="#1B2F43" stroke-linecap="round" stroke-linejoin="round"/>
<path fill-rule="evenodd" clip-rule="evenodd" d="M34 36H30V42H34V36Z" stroke="#1B2F43" stroke-linecap="round" stroke-linejoin="round"/>
<path d="M30 25.429C28.8546 24.528 27.4801 24 26.0004 24C24.5199 24 23.1454 24.528 22 25.429" stroke="#1B2F43" stroke-linecap="round" stroke-linejoin="round"/>
<path d="M29.0587 27.0917C28.184 26.4037 27.1319 25.9998 26.0009 25.9998C24.8691 25.9998 23.817 26.4037 22.9414 27.0917" stroke="#1B2F43" stroke-linecap="round" stroke-linejoin="round"/>
<path d="M28.1178 28.756C27.5111 28.28 26.7832 28 26 28C25.2161 28 24.4881 28.28 23.8823 28.756" stroke="#1B2F43" stroke-linecap="round" stroke-linejoin="round"/>
</svg>
