<svg width="1260" height="215" viewBox="0 0 1260 215" fill="none" xmlns="http://www.w3.org/2000/svg">
<path d="M889.543 143.237C916.891 165.771 942.708 188.811 967.304 215C913.57 203.548 861.07 193.849 807.5 185.674C620.771 157.174 432.588 146.216 243.681 143.795C162.854 142.876 82.4541 143.539 1.96775 145.31L0.164982 144.999C-0.0506601 144.961 -0.0592858 144.667 0.164982 144.629L1.93756 144.344C156.463 119.644 311.764 102.358 468.001 90.7823L523.162 87.1437C588.321 82.8455 653.057 80.6624 717.853 80.2368L717.029 78.9729C716.956 78.858 716.538 78.5899 716.305 78.3984L715.606 77.8281L714.83 77.2026C686.844 54.6775 657.525 34.293 626.447 16.0746L614.168 8.87835L613.374 8.43577L612.538 7.97616L611.692 7.50804L610.873 7.05694L610.084 6.62286L608.794 5.91643L609.648 5.4398L611.041 5.2866L612.188 5.16318L613.245 5.04828L614.431 4.92487L680.223 0.588375L681.582 0.558586L683.061 0.528796C747.719 -0.845774 812.145 0.490496 876.764 4.17587L878.205 4.25673L879.477 4.34184L880.59 4.41419L881.646 4.48228L882.776 4.55037L884.027 4.62697L885.334 4.70357L886.658 4.78443L888.133 4.8738C962.305 9.2954 1035.95 15.9597 1109.73 24.3731L1111.08 24.5263L1112.32 24.6668L1113.45 24.7944L1114.51 24.9136L1115.65 25.0413L1116.91 25.1817L1118.16 25.3221L1119.3 25.454L1120.53 25.5987C1241.2 39.7657 1361.09 58.3586 1479.9 83.5732L1481.11 83.8286L1482.16 84.0541L1483.22 84.2797L1484.3 84.5137L1485.39 84.7478L1486.45 84.9733L1487.48 85.1989L1488.52 85.4244L1489.59 85.6585L1490.68 85.8968L1491.75 86.1309L1492.79 86.3607L1493.82 86.5862L1494.87 86.8203L1495.95 87.0629L1497.04 87.3054L1498.09 87.5438L1499.13 87.7778L1500.13 87.9906L1501.23 88.2161L1502.35 88.4459L1503.51 88.6928L1626.44 118.984L1627.86 119.529C1628.69 119.61 1629.89 120.065 1627.98 120.342C1562.99 117.116 1498.57 117.486 1433.85 122.163C1362.3 127.33 1288.86 137.807 1219.56 157.664L1090.73 128.981C1029.75 116.814 968.826 105.924 907.295 96.9998L813.939 85.9351L889.565 143.254L889.543 143.237Z" fill="#14416E"/>
</svg>
